<?xml version="1.0" encoding="utf-8"?><!-- Uploaded to: SVG Repo, www.svgrepo.com, Generator: SVG Repo Mixer Tools -->
<svg version="1.1" id="designs" xmlns="http://www.w3.org/2000/svg" xmlns:xlink="http://www.w3.org/1999/xlink" 
	 width="800px" height="800px" viewBox="0 0 32 32" xml:space="preserve">
<style type="text/css">
	.sketchy_een{fill:#98C379;}
</style>
<path class="sketchy_een" d="M29.995,24.911c0.013-0.416-0.006-0.834-0.013-1.25c-0.01-0.426-0.025-0.851-0.037-1.277
	c-0.025-0.859-0.062-1.718-0.087-2.577c-0.052-1.743-0.04-3.487-0.119-5.23c-0.052-1.162-0.052-2.319-0.031-3.479
	c0.023-1.227,0.112-2.452,0.181-3.675c0.027-0.48-0.422-0.882-0.882-0.882c-0.118,0-0.228,0.026-0.328,0.067
	c-0.011-0.024-0.012-0.052-0.025-0.075c-0.125-0.212-0.315-0.317-0.536-0.365c0-0.008,0.004-0.014,0.004-0.022
	c-0.017-0.422,0-0.844,0.015-1.266c0.015-0.48,0.029-0.961,0.035-1.441c0.008-0.462-0.391-0.85-0.849-0.85
	c-0.462,0-0.851,0.387-0.851,0.85c0.004,0.886,0.036,1.779-0.022,2.664c-0.3,0-0.601,0-0.902,0.003
	c-0.319,0.002-0.639,0.002-0.958,0.002c-0.094-0.8-0.083-1.607-0.033-2.41c0.029-0.466-0.412-0.855-0.855-0.855
	c-0.483,0-0.834,0.391-0.857,0.855c-0.038,0.808,0.024,1.609,0.073,2.414c-0.758,0.005-1.516,0.001-2.274-0.001
	c0.035-0.092,0.058-0.189,0.051-0.292c-0.052-0.657-0.044-1.32-0.085-1.978c-0.029-0.47-0.372-0.865-0.865-0.865
	c-0.443,0-0.9,0.393-0.863,0.865C18.929,4.5,19,5.159,19.012,5.819c0.002,0.103,0.027,0.2,0.062,0.291c-0.353-0.001-0.706,0-1.059,0
	c-0.332,0-0.664-0.013-0.995-0.015c-0.003-0.062,0.001-0.122-0.01-0.188c0-0.001,0-0.001,0-0.001
	c-0.062-0.589-0.084-1.184-0.138-1.773c-0.021-0.247-0.083-0.457-0.264-0.638c-0.168-0.168-0.399-0.264-0.636-0.264
	s-0.468,0.096-0.638,0.264c-0.152,0.154-0.285,0.412-0.262,0.638c0.035,0.353,0.075,0.703,0.114,1.056
	c0.032,0.294,0.061,0.588,0.102,0.881c-0.737-0.012-1.474-0.009-2.211-0.034c-0.077-0.003-0.155-0.002-0.232-0.005
	c-0.008-0.711-0.008-1.422-0.045-2.131c-0.025-0.482-0.383-0.886-0.884-0.886c-0.458,0-0.917,0.403-0.884,0.886
	c0.047,0.697,0.085,1.395,0.103,2.094c-0.187-0.002-0.373-0.012-0.56-0.012c-0.029,0-0.059,0-0.088,0
	C9.954,5.982,9.422,5.993,8.89,6.002c0.022-0.806-0.015-1.617-0.046-2.421C8.825,3.099,8.455,2.695,7.958,2.695
	c-0.466,0-0.909,0.403-0.886,0.886C7.11,4.394,7.152,5.205,7.19,6.017C6.792,6.018,6.394,6.018,5.997,6.021
	C5.814,6.024,5.633,6.025,5.452,6.027C5.464,5.148,5.52,4.269,5.534,3.389c0.008-0.474-0.403-0.871-0.873-0.871
	c-0.476,0-0.869,0.397-0.871,0.871C3.785,4.292,3.786,5.193,3.752,6.094C3.742,6.095,3.73,6.095,3.72,6.097
	C3.577,6.137,3.452,6.21,3.348,6.314c-0.11,0.11-0.17,0.248-0.207,0.393C2.735,6.797,2.438,7.145,2.425,7.572
	c-0.054,1.726-0.08,3.453-0.099,5.181C2.188,12.895,2.1,13.085,2.1,13.304c0,0.192,0.082,0.373,0.204,0.52
	c-0.012,0.77-0.028,1.539-0.051,2.31c-0.023,0.873-0.008,1.747-0.044,2.622c-0.023,0.499-0.054,0.998-0.069,1.497
	c-0.015,0.468-0.021,0.936-0.031,1.404c-0.019,0.95-0.027,1.899-0.031,2.847c0,0.037,0.017,0.069,0.021,0.105
	C2.041,24.722,2,24.846,2,24.98c0,0.457,0.383,0.846,0.842,0.842c0.518-0.003,1.038-0.015,1.557-0.025
	c-0.167,0.177-0.305,0.452-0.28,0.699c0.042,0.439,0.079,0.878,0.054,1.32c-0.006,0.106-0.015,0.212-0.017,0.318
	c-0.004,0.247,0.062,0.437,0.154,0.659c0.146,0.345,0.512,0.526,0.853,0.613c0.208,0.052,0.437,0.056,0.653,0.069
	c0.108,0.008,0.218,0.008,0.328,0.008c0.258,0.002,0.518,0,0.776-0.006c0.485-0.008,0.969-0.048,1.452-0.081
	c0.901-0.062,1.799-0.102,2.705-0.108c0.967-0.006,1.934-0.019,2.901-0.023c0.946-0.006,1.893,0.019,2.839,0.023
	c0.932,0.002,1.867-0.037,2.801-0.037c1.815,0,3.631,0.002,5.444,0.046c0.295,0.008,0.588,0.017,0.88,0.033
	c0.125,0.006,0.25,0.012,0.374,0.017c0.135,0.004,0.285-0.013,0.41-0.058c0.274-0.096,0.443-0.254,0.599-0.491
	c0.166-0.25,0.175-0.601,0.193-0.89c0.008-0.135-0.004-0.27-0.008-0.403c-0.013-0.333-0.058-0.667-0.104-0.998
	c-0.03-0.106-0.096-0.192-0.162-0.277c0.144,0.003,0.289,0.01,0.433,0.014c0.493,0.013,0.986,0.046,1.477,0.025
	c0.453-0.019,0.832-0.362,0.832-0.83c0-0.085-0.025-0.166-0.052-0.247C29.967,25.103,29.992,25.01,29.995,24.911z M3.722,24.154
	c-0.001-0.311,0-0.623,0.011-0.934c0.015-0.439,0.019-0.876,0.017-1.316c-0.001-0.181,0.009-0.362,0.01-0.543
	c0.636,0.032,1.272,0.061,1.908,0.088c0.646,0.027,1.292,0.021,1.937,0.03c0,0.078,0,0.157-0.001,0.235
	c-0.007,0.831,0.013,1.665-0.013,2.496C6.302,24.191,5.012,24.17,3.722,24.154z M5.621,14.005c0.677-0.011,1.356-0.003,2.034,0.003
	c-0.015,0.712-0.028,1.423-0.033,2.135c-0.655,0.004-1.311,0.008-1.966,0.004c-0.589-0.005-1.177,0.004-1.764,0.02
	c0.011-0.698,0.021-1.396,0.032-2.095C4.489,14.046,5.054,14.014,5.621,14.005z M28.155,14.418c0.015,0.386,0.026,0.771,0.04,1.157
	c0.007,0.212,0.004,0.423,0.008,0.635c-0.071-0.004-0.141-0.012-0.213,0c-0.374,0.01-0.757-0.017-1.129-0.031
	c-0.405-0.013-0.807-0.027-1.21-0.027c-0.502,0-1.003-0.011-1.505-0.019c0.04-0.512,0.087-1.024,0.124-1.538
	c0.009-0.127,0.015-0.255,0.023-0.382c0.55,0.023,1.1,0.043,1.649,0.075c0.678,0.037,1.35,0.133,2.028,0.164
	C28.035,14.455,28.093,14.431,28.155,14.418z M22.433,20.142c-0.383-0.002-0.765,0.001-1.148-0.011
	c-0.797-0.022-1.595-0.045-2.393-0.057c0.002-0.078,0-0.156,0.003-0.234c0.024-0.693,0.069-1.385,0.114-2.077
	c0.043,0,0.086,0.001,0.13,0.001c0.456,0.002,0.915,0.002,1.373,0.002c0.649-0.001,1.298,0,1.948,0.007
	c-0.005,0.396-0.019,0.791-0.019,1.187C22.44,19.354,22.436,19.748,22.433,20.142z M3.796,19.386
	c0.025-0.508,0.035-1.016,0.05-1.523c1.255-0.074,2.511-0.111,3.769-0.13c0,0.499,0.002,0.999-0.002,1.497
	c-0.002,0.232-0.002,0.464-0.002,0.696c-0.58-0.013-1.16-0.025-1.738-0.058c-0.449-0.025-0.898-0.073-1.346-0.106
	c-0.246-0.018-0.49-0.035-0.735-0.051C3.795,19.603,3.791,19.495,3.796,19.386z M9.242,19.714c-0.001-0.667-0.001-1.334,0.001-2.001
	c0.962-0.004,1.924-0.005,2.886-0.002c-0.006,0.46-0.013,0.92-0.016,1.381c-0.003,0.316-0.005,0.632-0.007,0.948
	c-0.954-0.011-1.909-0.032-2.862-0.066C9.243,19.887,9.242,19.8,9.242,19.714z M13.675,19.733c0.004-0.673,0.028-1.346,0.055-2.019
	c0.057,0,0.114,0,0.17,0c1.18,0,2.36,0.017,3.54,0.031c-0.016,0.338-0.029,0.676-0.047,1.013c-0.023,0.435-0.047,0.87-0.067,1.306
	c-0.576-0.002-1.153-0.007-1.729-0.007c-0.63,0.002-1.26,0.002-1.888-0.002c-0.012,0-0.024,0-0.036,0
	C13.675,19.948,13.674,19.84,13.675,19.733z M22.496,16.114c-0.226-0.002-0.451-0.006-0.677-0.006c-0.902,0-1.804,0.014-2.707,0.023
	c0.033-0.475,0.068-0.95,0.096-1.425c0.013-0.216,0.015-0.431,0.022-0.647c0.62,0.002,1.24,0.001,1.859,0.019
	c0.499,0.014,0.996,0.04,1.494,0.062C22.56,14.798,22.528,15.455,22.496,16.114z M17.514,16.139c-0.566,0-1.133-0.001-1.699-0.004
	c-0.676-0.005-1.352-0.003-2.027-0.003c0.018-0.533,0.029-1.065,0.022-1.6c-0.001-0.161-0.006-0.324-0.009-0.486
	c0.851,0.003,1.702,0.005,2.554,0.005c0.4,0,0.801,0,1.202,0C17.549,14.747,17.539,15.443,17.514,16.139z M12.083,14.037
	c0.028,0.698,0.052,1.398,0.055,2.097c-0.923,0.007-1.846,0.011-2.769,0.009c-0.032,0-0.064,0-0.095,0
	c0.022-0.547,0.049-1.093,0.074-1.64c0.007-0.162,0.013-0.324,0.02-0.486C10.273,14.024,11.178,14.031,12.083,14.037z M9.264,24.225
	c-0.006-0.199-0.013-0.397-0.014-0.596c-0.002-0.43,0.002-0.861,0-1.291c-0.001-0.272-0.001-0.544-0.002-0.816
	c0.48,0.019,0.96,0.042,1.441,0.049c0.469,0.007,0.937,0.003,1.405,0.002c0,0.071-0.001,0.143-0.002,0.214
	c-0.004,0.801,0.024,1.603,0.013,2.404c-0.168,0.002-0.336,0-0.504,0.002C10.822,24.205,10.044,24.225,9.264,24.225z M13.726,24.186
	c-0.033-0.87-0.051-1.741-0.053-2.613c1.204-0.006,2.408-0.01,3.612-0.005c-0.008,0.751-0.005,1.503-0.019,2.255
	c-0.002,0.125-0.005,0.249-0.008,0.374c-1.032-0.008-2.063-0.009-3.096-0.012C14.017,24.184,13.871,24.187,13.726,24.186z
	 M18.883,24.221c-0.019-0.609-0.021-1.219-0.019-1.829c0-0.268,0.009-0.536,0.01-0.804c1.184,0.027,2.368,0.073,3.552,0.107
	c-0.004,0.786-0.006,1.571,0.013,2.357c0.002,0.099,0.006,0.198,0.008,0.297c-1.054-0.046-2.107-0.092-3.162-0.121
	C19.151,24.223,19.017,24.224,18.883,24.221z M24.072,19.766c-0.004-0.652-0.006-1.303,0.002-1.955
	c0.026,0.001,0.051,0.001,0.077,0.002c0.674,0.029,1.348,0.04,2.025,0.05c0.326,0.004,0.651,0.013,0.977,0.027
	c0.352,0.015,0.723,0.055,1.074,0c0.001,0.096,0.003,0.192,0.004,0.287c0.005,0.698,0.029,1.396,0.051,2.094
	c-0.284-0.001-0.569,0.011-0.852,0.011c-0.389,0.002-0.776-0.019-1.165-0.039c-0.728-0.038-1.458-0.066-2.188-0.079
	C24.074,20.031,24.073,19.899,24.072,19.766z M6.507,7.603c0.859-0.006,1.716-0.015,2.574-0.05c0.811-0.031,1.622-0.052,2.431-0.042
	c0.875,0.013,1.747,0.04,2.62,0.06c1.63,0.033,3.261,0.037,4.891,0.029c1.687-0.006,3.375,0.002,5.062,0.004
	c0.647,0.002,1.294,0.002,1.942,0.006c0.552,0.002,1.099,0.007,1.646,0.071c0.029,0.005,0.059,0.009,0.088,0.015
	c0.127,0.021,0.246,0.02,0.362,0c-0.062,1.698-0.049,3.397-0.021,5.097c-0.044-0.008-0.084-0.023-0.131-0.028
	c-0.36-0.04-0.726-0.037-1.088-0.054c-0.397-0.021-0.794-0.044-1.19-0.064c-0.848-0.042-1.695-0.081-2.543-0.112
	c-1.724-0.06-3.45-0.033-5.176-0.033c-3.41,0-6.821,0.039-10.231-0.023c-0.831-0.015-1.662-0.027-2.493-0.027
	c-0.426,0-0.852,0.014-1.278,0.022c0.064-1.511,0.171-3.02,0.24-4.531C4.278,7.94,4.349,7.944,4.405,7.929
	c0.165-0.046,0.313-0.142,0.424-0.271C5.388,7.621,5.947,7.607,6.507,7.603z M25.827,27.575c-0.003,0-0.005,0-0.008,0
	c-0.223-0.012-0.447-0.027-0.672-0.035c-0.445-0.019-0.892-0.037-1.339-0.037c-0.915-0.004-1.832,0.004-2.747,0.013
	c-0.487,0.006-0.975,0.004-1.46,0.002c-0.449-0.002-0.898-0.002-1.345,0c-0.948,0.006-1.892,0.015-2.837,0.008
	c-1.616-0.015-3.232-0.042-4.847-0.031c-1.453,0.012-2.917,0.161-4.367,0.038c-0.009-0.346-0.019-0.692-0.048-1.038
	c-0.023-0.274-0.097-0.512-0.294-0.713c0.706,0.002,1.411,0.015,2.117,0.015c1.685,0,3.369-0.039,5.055-0.039
	c0.867,0,1.734-0.006,2.602-0.006c0.875-0.002,1.753-0.013,2.628,0.008c1.674,0.044,3.344,0.193,5.016,0.274
	c0.482,0.025,0.961,0.039,1.443,0.064c0.417,0.023,0.835,0.057,1.253,0.084c-0.129,0.145-0.237,0.355-0.217,0.549
	C25.788,27.012,25.822,27.293,25.827,27.575z M26.736,24.562c-0.83-0.035-1.657-0.11-2.485-0.139
	c-0.057-0.002-0.114-0.005-0.17-0.007c-0.003-0.31,0.001-0.619,0.005-0.927c0.006-0.422,0.006-0.842,0.004-1.264
	c-0.001-0.16-0.002-0.32-0.003-0.48c0.625,0.012,1.251,0.019,1.874,0.056c0.441,0.027,0.882,0.062,1.323,0.104
	c0.341,0.032,0.688,0.058,1.033,0.041c0.018,0.888,0.082,1.778,0.052,2.666C27.823,24.606,27.279,24.584,26.736,24.562z"/>
</svg>